<?xml version="1.0" standalone="no"?>
<!DOCTYPE svg PUBLIC "-//W3C//DTD SVG 20010904//EN"
 "http://www.w3.org/TR/2001/REC-SVG-20010904/DTD/svg10.dtd">
<svg version="1.0" xmlns="http://www.w3.org/2000/svg"
 width="256.000000pt" height="256.000000pt" viewBox="0 0 256.000000 256.000000"
 preserveAspectRatio="xMidYMid meet">

<g transform="translate(0.000000,256.000000) scale(0.100000,-0.100000)"
fill="#161b2d" stroke="none">
<path d="M867 2542 c-21 -23 -19 -32 51 -146 29 -49 50 -92 45 -95 -4 -4 -34
-24 -66 -45 -166 -111 -286 -329 -287 -518 0 -47 4 -59 19 -68 27 -14 1275
-14 1302 0 15 9 19 21 19 68 -1 189 -121 407 -287 518 -32 21 -62 41 -66 45
-5 3 16 47 46 96 30 49 57 99 61 110 8 24 -24 56 -51 51 -15 -3 -62 -72 -141
-205 -5 -8 -27 -7 -87 8 -101 24 -189 24 -290 0 -60 -15 -82 -16 -87 -8 -123
208 -144 230 -181 189z m594 -281 c199 -63 367 -262 396 -468 l6 -43 -582 0
-581 0 0 21 c0 41 32 145 62 201 55 104 158 206 261 260 118 60 302 72 438 29z"/>
<path d="M953 2043 c-20 -7 -17 -99 3 -107 52 -20 104 5 104 50 0 45 -17 64
-58 63 -20 0 -43 -3 -49 -6z"/>
<path d="M1510 2031 c-26 -50 -1 -101 50 -101 52 0 60 8 60 60 0 53 -8 60 -65
60 -24 0 -38 -6 -45 -19z"/>
<path d="M357 1606 c-21 -8 -47 -22 -59 -33 -47 -42 -48 -51 -48 -431 0 -356
0 -359 23 -392 63 -94 193 -97 261 -7 20 28 21 38 21 402 0 364 -1 374 -21
402 -43 57 -115 81 -177 59z m96 -104 c16 -14 17 -44 17 -357 0 -327 -1 -343
-20 -360 -25 -22 -65 -22 -90 0 -19 17 -20 33 -20 361 l0 343 27 20 c28 23 54
21 86 -7z"/>
<path d="M628 1609 c-17 -9 -18 -44 -18 -502 0 -458 2 -495 19 -532 36 -79
111 -125 201 -125 l50 0 0 -155 c0 -177 7 -205 66 -253 66 -55 157 -55 220 0
61 54 67 76 72 250 l4 158 38 0 38 0 4 -158 c5 -174 11 -196 72 -250 63 -55
154 -55 220 0 59 48 66 76 66 253 l0 155 53 0 c90 1 168 51 201 132 14 32 16
107 16 527 0 475 -1 491 -19 501 -27 14 -1279 13 -1303 -1z m1232 -533 c0
-445 0 -454 -21 -480 -33 -42 -71 -56 -148 -56 -101 0 -101 -1 -101 -220 0
-163 -2 -178 -20 -198 -29 -31 -66 -38 -105 -19 -47 22 -55 60 -55 252 0 112
-4 165 -12 173 -16 16 -220 16 -236 0 -8 -8 -12 -61 -12 -173 0 -192 -8 -230
-55 -252 -39 -19 -76 -12 -105 19 -18 20 -20 35 -20 198 0 219 0 220 -101 220
-77 0 -115 14 -148 56 -21 26 -21 35 -21 480 l0 454 580 0 580 0 0 -454z"/>
<path d="M2107 1606 c-51 -19 -85 -52 -98 -95 -6 -23 -9 -164 -7 -388 3 -339
4 -353 24 -380 68 -90 198 -87 261 7 23 33 23 36 23 395 0 359 0 362 -23 395
-41 62 -115 89 -180 66z m96 -104 c16 -14 17 -44 17 -357 0 -327 -1 -343 -20
-360 -25 -22 -65 -22 -90 0 -19 17 -20 33 -20 360 0 313 1 343 18 357 33 29
60 29 95 0z"/>
</g>
</svg>
