<?xml version="1.0" standalone="no"?>
<!DOCTYPE svg PUBLIC "-//W3C//DTD SVG 20010904//EN"
 "http://www.w3.org/TR/2001/REC-SVG-20010904/DTD/svg10.dtd">
<svg version="1.0" xmlns="http://www.w3.org/2000/svg"
 width="256.000000pt" height="256.000000pt" viewBox="0 0 256.000000 256.000000"
 preserveAspectRatio="xMidYMid meet">

<g transform="translate(0.000000,256.000000) scale(0.100000,-0.100000)"
fill="#161b2d" stroke="none">
<path d="M1145 2554 c-81 -9 -202 -37 -285 -66 -428 -151 -740 -508 -836 -958
-25 -119 -25 -381 0 -500 109 -510 496 -897 1006 -1006 119 -25 381 -25 500 0
253 54 470 172 652 352 179 179 300 401 354 654 25 119 25 381 0 500 -108 504
-487 888 -986 1001 -84 19 -319 32 -405 23z m90 -424 c-7 -11 12 -13 140 -15
61 -2 95 -8 143 -28 35 -15 78 -26 96 -25 21 1 41 -7 60 -25 15 -14 34 -23 42
-20 9 3 44 -24 93 -73 89 -90 141 -180 132 -228 l-6 -30 -12 26 c-9 20 -17 25
-32 21 -26 -7 -27 -24 -1 -46 11 -9 20 -25 20 -36 0 -11 3 -27 7 -37 5 -13 3
-15 -7 -9 -10 6 -11 4 -5 -11 4 -10 8 -28 8 -39 -1 -11 4 -34 9 -52 7 -26 5
-42 -11 -79 -12 -26 -21 -51 -21 -57 0 -22 -53 -126 -64 -124 -6 1 -15 -12
-20 -28 -12 -40 -122 -128 -196 -157 -80 -32 -227 -32 -290 -1 -66 33 -156
123 -185 185 -49 104 -26 241 56 339 76 91 193 118 292 69 62 -31 84 -57 26
-30 -50 22 -123 26 -183 8 -65 -20 -140 -100 -161 -171 -16 -55 -16 -63 0
-128 29 -116 92 -191 196 -230 27 -11 66 -19 87 -19 40 0 117 21 154 42 13 7
27 12 31 13 21 1 116 92 116 111 1 12 12 33 26 48 13 14 27 42 31 62 11 60 -2
254 -21 309 -23 67 -76 147 -132 201 -86 84 -173 114 -332 114 -96 0 -110 -3
-173 -31 -37 -18 -68 -36 -68 -40 0 -5 -10 -9 -22 -9 -28 0 -83 -35 -83 -52 0
-7 -9 -14 -20 -16 -50 -10 -205 -156 -205 -194 0 -9 -14 -46 -31 -83 -31 -65
-32 -71 -33 -213 -1 -200 27 -332 69 -332 16 0 55 -47 55 -67 0 -8 -4 -11 -10
-8 -15 9 -12 -8 6 -33 8 -12 17 -31 19 -42 6 -34 35 -86 68 -126 18 -22 41
-51 50 -66 10 -16 22 -28 29 -28 13 0 88 -67 82 -73 -6 -6 61 -48 80 -51 7 -1
30 -16 49 -33 25 -22 54 -35 94 -43 82 -16 85 -18 26 -19 -121 -2 -292 81
-420 203 -94 89 -151 168 -207 287 -66 142 -77 196 -83 410 -5 175 -4 191 17
255 31 93 59 154 70 154 6 0 24 30 42 68 22 48 51 86 100 135 38 37 74 67 79
67 6 0 25 11 43 25 45 34 183 97 231 106 60 10 67 10 60 -1z m-54 -1013 l23
-32 -23 20 c-13 11 -27 28 -33 39 -16 29 7 11 33 -27z m53 -26 c16 -26 138
-81 197 -89 63 -9 63 -10 16 -11 -74 -2 -237 66 -237 99 0 13 17 13 24 1z"/>
</g>
</svg>
