<?xml version="1.0" standalone="no"?>
<!DOCTYPE svg PUBLIC "-//W3C//DTD SVG 20010904//EN"
 "http://www.w3.org/TR/2001/REC-SVG-20010904/DTD/svg10.dtd">
<svg version="1.0" xmlns="http://www.w3.org/2000/svg"
 width="256.000000pt" height="256.000000pt" viewBox="0 0 256.000000 256.000000"
 preserveAspectRatio="xMidYMid meet">

<g transform="translate(0.000000,256.000000) scale(0.100000,-0.100000)"
fill="#161b2d" stroke="none">
<path d="M652 2540 c-26 -11 -39 -38 -47 -102 -5 -37 -11 -48 -28 -54 -12 -3
-47 -17 -78 -31 l-57 -25 -47 36 c-25 20 -58 36 -72 36 -30 0 -154 -115 -173
-160 -13 -32 -6 -50 41 -111 l29 -37 -25 -53 c-14 -30 -25 -59 -25 -66 0 -18
-19 -26 -80 -34 -81 -11 -90 -27 -90 -153 0 -117 11 -142 65 -151 19 -3 50 -7
68 -10 29 -5 36 -12 61 -71 l29 -65 -30 -37 c-37 -46 -53 -76 -53 -97 0 -10
35 -53 77 -96 92 -95 110 -99 187 -41 l51 39 50 -24 c28 -12 55 -23 62 -23 18
0 24 -15 33 -83 13 -89 26 -97 154 -97 117 0 142 11 151 65 3 19 7 50 10 69 5
29 11 36 48 49 23 8 56 20 73 27 29 12 34 11 79 -23 73 -56 94 -52 182 36 88
89 93 112 38 184 -20 26 -34 52 -31 57 3 6 16 38 30 71 24 59 26 60 73 68 104
19 113 32 113 167 0 115 -16 138 -102 147 -55 6 -58 7 -69 42 -6 20 -20 52
-30 72 l-18 37 34 43 c56 70 50 96 -39 185 -88 88 -108 92 -175 39 -25 -20
-50 -34 -55 -31 -6 3 -41 17 -77 32 l-66 27 -6 55 c-9 85 -26 96 -145 99 -53
2 -107 -2 -120 -7z m247 -515 c186 -119 172 -380 -27 -476 -90 -44 -230 -19
-300 54 -54 57 -76 113 -76 192 0 73 13 108 61 172 71 96 239 124 342 58z"/>
<path d="M1853 1761 c-61 -9 -83 -31 -83 -85 0 -45 0 -45 -64 -78 l-63 -34
-34 23 c-61 42 -88 32 -163 -60 -45 -55 -46 -85 -5 -132 l31 -35 -17 -64 c-17
-63 -18 -64 -57 -70 -22 -4 -50 -17 -65 -32 -21 -21 -24 -32 -19 -62 3 -20 6
-54 6 -75 0 -56 35 -87 97 -87 l49 0 26 -53 26 -53 -24 -40 c-43 -71 -31 -101
70 -175 51 -37 74 -36 122 5 l40 34 54 -18 c58 -20 64 -27 74 -83 11 -57 38
-70 131 -62 97 9 114 23 122 95 l6 55 55 27 56 27 41 -25 c23 -13 52 -24 64
-24 26 0 105 78 126 124 16 36 11 51 -28 93 l-30 32 21 63 c19 60 22 63 61 73
22 5 50 20 62 31 20 20 21 28 14 103 -6 70 -10 84 -32 101 -16 13 -41 20 -67
20 -40 0 -41 1 -69 60 -28 60 -28 61 -9 88 27 39 33 59 23 85 -13 32 -119 117
-147 117 -13 0 -39 -14 -58 -31 l-36 -31 -62 22 c-67 23 -78 32 -78 68 0 13
-11 34 -25 47 -25 26 -51 29 -142 16z m203 -427 c61 -37 104 -113 104 -184 0
-70 -43 -147 -103 -184 -150 -93 -337 10 -337 186 0 172 188 274 336 182z"/>
<path d="M954 1016 c-32 -14 -44 -33 -44 -69 0 -17 -12 -27 -54 -43 -52 -20
-55 -20 -77 -3 -40 31 -78 24 -126 -23 -48 -47 -54 -76 -24 -121 18 -28 18
-30 1 -75 -16 -42 -22 -48 -56 -54 -56 -12 -74 -38 -74 -107 0 -47 4 -61 23
-79 13 -12 32 -22 43 -22 29 0 44 -14 64 -57 17 -39 17 -39 -6 -69 -37 -46
-31 -74 26 -128 27 -25 57 -46 68 -46 10 0 32 11 50 23 l32 24 44 -21 c39 -18
46 -26 51 -57 10 -56 36 -74 106 -74 67 0 88 14 104 71 8 29 18 39 57 56 l47
20 27 -21 c40 -31 77 -27 123 14 50 46 58 76 31 120 -21 34 -21 35 -3 85 15
43 21 50 44 50 14 0 38 9 53 21 23 18 26 27 26 85 0 73 -20 104 -68 104 -24 0
-31 7 -50 51 -21 51 -21 52 -2 77 11 13 20 37 20 53 0 32 -40 83 -82 105 -27
14 -32 14 -68 -5 l-39 -20 -51 21 c-34 14 -50 26 -50 39 0 25 -20 67 -35 73
-36 14 -103 15 -131 2z m129 -330 c41 -16 81 -64 97 -112 37 -112 -52 -228
-176 -228 -151 0 -230 186 -126 298 51 54 136 71 205 42z"/>
</g>
</svg>
