<?xml version="1.0" standalone="no"?>
<!DOCTYPE svg PUBLIC "-//W3C//DTD SVG 20010904//EN"
 "http://www.w3.org/TR/2001/REC-SVG-20010904/DTD/svg10.dtd">
<svg version="1.0" xmlns="http://www.w3.org/2000/svg"
 width="256.000000pt" height="256.000000pt" viewBox="0 0 256.000000 256.000000"
 preserveAspectRatio="xMidYMid meet">

<g transform="translate(0.000000,256.000000) scale(0.100000,-0.100000)"
fill="#000000" stroke="none">
<path d="M1739 2086 c-37 -13 -121 -53 -186 -90 -227 -126 -405 -186 -566
-189 -88 -2 -106 5 -107 40 0 22 31 43 54 37 68 -17 324 49 458 117 l63 33
-65 12 c-102 20 -264 17 -354 -6 -93 -24 -187 -72 -225 -116 -56 -63 -105
-246 -135 -499 -27 -226 -29 -203 26 -215 109 -23 248 -32 398 -27 310 11 586
81 868 218 l142 70 0 42 c0 23 -7 99 -15 169 -30 262 -73 366 -170 409 -54 25
-107 23 -186 -5z"/>
<path d="M2200 1310 c0 -61 -5 -100 -15 -120 -66 -128 -496 -281 -908 -325
-319 -33 -611 -6 -698 64 l-23 18 12 183 c7 100 11 184 9 186 -2 2 -40 -21
-84 -51 -157 -107 -284 -266 -319 -399 -53 -199 50 -319 324 -379 82 -18 131
-21 322 -22 538 -1 1060 124 1335 320 141 100 231 233 242 355 5 51 2 67 -21
114 -27 55 -71 98 -133 130 -18 9 -34 16 -38 16 -3 0 -5 -41 -5 -90z"/>
<path d="M2000 1328 c-52 -26 -117 -57 -145 -67 l-50 -19 -3 -91 c-1 -50 0
-91 3 -91 3 0 44 16 91 35 98 39 157 72 197 109 25 23 27 31 27 101 0 54 -3
75 -12 73 -7 -1 -56 -23 -108 -50z"/>
<path d="M1633 1188 l-73 -21 0 -89 c0 -80 2 -89 18 -84 9 3 37 10 62 16 25 6
53 13 63 16 14 5 17 18 17 95 0 49 -3 89 -7 88 -5 0 -41 -10 -80 -21z"/>
<path d="M1375 1127 c-135 -26 -520 -28 -640 -5 -44 9 -81 15 -82 13 -2 -1 -6
-36 -9 -78 l-7 -75 54 -17 c97 -29 207 -38 384 -32 141 4 392 30 403 41 1 2 2
41 0 87 l-3 84 -100 -18z"/>
</g>
</svg>
