<?xml version="1.0" standalone="no"?>
<!DOCTYPE svg PUBLIC "-//W3C//DTD SVG 20010904//EN"
 "http://www.w3.org/TR/2001/REC-SVG-20010904/DTD/svg10.dtd">
<svg version="1.0" xmlns="http://www.w3.org/2000/svg"
 width="256.000000pt" height="256.000000pt" viewBox="0 0 256.000000 256.000000"
 preserveAspectRatio="xMidYMid meet">

<g transform="translate(0.000000,256.000000) scale(0.100000,-0.100000)"
fill="#161b2d" stroke="none">
<path d="M1635 2541 c-95 -27 -164 -70 -245 -151 -51 -51 -86 -96 -108 -142
-58 -119 -77 -275 -36 -308 9 -9 39 -11 89 -8 239 16 455 270 455 537 0 93
-32 108 -155 72z m55 -104 c0 -29 -31 -130 -54 -176 -53 -103 -179 -207 -273
-224 -31 -6 -33 -5 -33 22 0 34 32 128 56 168 61 97 132 158 234 200 64 26 70
27 70 10z"/>
<path d="M1605 1936 c-33 -8 -105 -31 -160 -52 -133 -51 -168 -51 -315 6 -111
42 -119 44 -230 44 -140 1 -225 -23 -334 -94 -142 -93 -237 -224 -292 -405
-26 -84 -28 -102 -28 -270 0 -193 12 -269 70 -450 90 -278 312 -599 469 -676
112 -55 167 -51 380 26 135 49 202 46 365 -15 96 -35 127 -42 190 -43 134 -1
236 63 359 226 116 155 226 367 238 458 5 36 4 37 -63 77 -121 71 -203 171
-238 291 -20 67 -21 200 -2 262 33 108 108 213 195 273 68 48 65 71 -23 165
-109 116 -252 179 -426 186 -61 3 -117 0 -155 -9z m294 -116 c71 -21 169 -79
210 -123 l24 -26 -59 -60 c-122 -125 -175 -253 -175 -420 0 -199 90 -371 251
-479 30 -20 56 -37 57 -37 6 -2 -55 -135 -91 -200 -87 -159 -225 -319 -301
-350 -64 -27 -144 -19 -262 26 -180 68 -284 66 -478 -9 -160 -62 -231 -48
-346 69 -166 169 -303 437 -366 714 -28 124 -25 364 5 470 65 224 211 377 412
430 108 29 177 19 364 -49 132 -48 172 -48 312 5 60 22 134 47 164 54 70 19
189 12 279 -15z"/>
<path d="M500 1518 c-33 -54 -19 -98 29 -98 48 0 86 77 55 111 -27 30 -61 24
-84 -13z"/>
<path d="M441 1331 c-8 -5 -18 -33 -22 -63 -33 -232 38 -538 181 -779 45 -75
56 -85 95 -75 38 10 43 48 12 95 -41 61 -93 170 -125 261 -50 144 -66 239 -67
400 0 80 -4 151 -8 158 -9 14 -46 16 -66 3z"/>
</g>
</svg>
