<?xml version="1.0" standalone="no"?>
<!DOCTYPE svg PUBLIC "-//W3C//DTD SVG 20010904//EN"
 "http://www.w3.org/TR/2001/REC-SVG-20010904/DTD/svg10.dtd">
<svg version="1.0" xmlns="http://www.w3.org/2000/svg"
 width="256.000000pt" height="256.000000pt" viewBox="0 0 256.000000 256.000000"
 preserveAspectRatio="xMidYMid meet">

<g transform="translate(0.000000,256.000000) scale(0.100000,-0.100000)"
fill="#161b2d" stroke="none">
<path d="M115 2546 c-41 -18 -83 -69 -90 -109 -3 -18 -4 -419 -3 -892 l3 -860
23 -33 c48 -66 51 -67 422 -70 l336 -3 41 -67 c46 -76 63 -121 63 -167 0 -55
-26 -68 -149 -76 -132 -9 -209 -29 -250 -68 -30 -28 -31 -32 -31 -115 l0 -86
800 0 800 0 0 98 0 99 -37 17 c-63 28 -143 46 -238 52 -49 4 -98 11 -107 16
-37 19 -13 126 54 238 l33 55 320 5 c354 6 360 7 407 72 l23 33 0 887 c0 880
0 887 -21 914 -11 15 -33 37 -48 48 -27 21 -33 21 -1174 23 -938 2 -1153 0
-1177 -11z m2293 -888 l2 -738 -1125 0 -1125 0 0 740 0 740 1123 -2 1122 -3 3
-737z m-1078 -858 c24 -24 26 -77 3 -102 -20 -23 -80 -24 -105 -1 -24 22 -24
77 2 103 11 11 33 20 50 20 17 0 39 -9 50 -20z m398 -227 c-88 -178 -92 -188
-93 -240 0 -75 27 -99 122 -107 111 -10 199 -25 243 -42 l40 -16 0 -59 0 -59
-760 0 -760 0 0 49 c0 84 43 107 223 122 72 6 135 16 155 26 77 36 78 136 3
265 l-39 68 435 0 c239 0 433 -3 431 -7z"/>
<path d="M1184 2021 c-43 -26 -74 -69 -74 -101 0 -16 7 -63 15 -105 17 -88 15
-92 -51 -170 -67 -79 -85 -145 -40 -145 18 0 38 -17 75 -65 46 -59 81 -82 81
-55 0 20 -28 65 -60 95 -56 53 -56 57 -5 160 l47 93 36 -15 c42 -18 105 -12
131 11 24 22 31 20 31 -10 0 -14 14 -56 30 -94 17 -38 30 -83 30 -100 0 -35
15 -70 31 -70 6 0 24 10 41 21 27 20 29 25 22 63 -13 80 -43 140 -94 191 l-50
49 0 86 c0 103 -11 128 -70 158 -54 27 -85 28 -126 3z m28 -105 c11 -15 10
-56 -1 -56 -5 0 -12 7 -15 16 -8 22 -28 6 -21 -17 4 -10 2 -19 -4 -19 -13 0
-31 33 -31 59 0 36 51 48 72 17z m120 7 c22 -20 24 -63 3 -63 -8 0 -15 7 -15
15 0 8 -5 15 -10 15 -6 0 -13 -7 -16 -15 -10 -25 -24 -17 -24 13 0 28 16 52
34 52 5 0 18 -7 28 -17z m-4 -92 c32 -17 27 -38 -17 -61 -32 -17 -82 -15 -120
4 -36 19 -38 27 -13 49 39 36 93 39 150 8z"/>
<path d="M1377 1463 c-4 -3 -7 -50 -7 -104 0 -105 13 -136 52 -126 47 13 169
92 174 113 7 29 -2 44 -26 44 -14 0 -21 10 -26 35 -3 19 -8 35 -11 35 -3 0
-18 -11 -35 -25 -40 -34 -64 -32 -77 5 -9 28 -29 38 -44 23z"/>
<path d="M1023 1444 c-4 -11 -13 -13 -34 -9 -16 4 -29 3 -30 -2 0 -4 -2 -41
-4 -80 l-4 -73 32 0 c18 0 60 -7 92 -15 48 -13 64 -14 82 -4 38 21 30 47 -46
141 -46 58 -76 72 -88 42z"/>
<path d="M1321 1360 c-13 -11 -36 -20 -51 -20 -41 0 -60 -10 -60 -31 0 -17 8
-19 70 -19 l70 0 0 45 c0 25 -1 45 -2 45 -2 -1 -14 -10 -27 -20z"/>
</g>
</svg>
