<?xml version="1.0" standalone="no"?>
<!DOCTYPE svg PUBLIC "-//W3C//DTD SVG 20010904//EN"
 "http://www.w3.org/TR/2001/REC-SVG-20010904/DTD/svg10.dtd">
<svg version="1.0" xmlns="http://www.w3.org/2000/svg"
 width="256.000000pt" height="256.000000pt" viewBox="0 0 256.000000 256.000000"
 preserveAspectRatio="xMidYMid meet">

<g transform="translate(0.000000,256.000000) scale(0.100000,-0.100000)"
fill="#161b2d" stroke="none">
<path d="M95 2436 c-38 -17 -60 -42 -80 -89 -13 -32 -15 -141 -15 -855 l0
-818 23 -44 c45 -89 17 -84 535 -90 382 -4 457 -7 454 -19 -6 -27 -65 -104
-126 -163 -95 -93 -269 -167 -393 -168 -32 0 -33 -2 -33 -40 l0 -40 795 0 795
0 0 40 c0 36 -2 40 -25 40 -59 0 -185 34 -247 67 -97 51 -207 173 -233 260
l-6 22 460 3 c446 3 460 4 488 24 15 11 38 40 51 64 l22 44 0 821 0 821 -22
44 c-13 24 -36 53 -51 64 -28 21 -35 21 -1195 23 -953 2 -1172 0 -1197 -11z
m2283 -893 l-3 -728 -1095 0 -1095 0 -3 728 -2 727 1100 0 1100 0 -2 -727z
m-1034 -809 c60 -61 21 -159 -64 -159 -73 0 -115 74 -80 139 27 51 102 61 144
20z"/>
<path d="M1364 2071 c-53 -24 -109 -91 -123 -148 -15 -58 -6 -69 44 -53 76 25
145 113 145 185 0 40 -8 42 -66 16z"/>
<path d="M1008 1834 c-70 -22 -132 -89 -158 -171 -23 -74 -25 -114 -9 -199 31
-172 159 -364 242 -364 16 0 61 10 100 21 l70 22 74 -22 c40 -11 82 -21 93
-21 58 0 130 72 188 189 27 55 33 76 23 79 -7 2 -29 18 -49 36 -94 82 -96 234
-4 320 38 36 32 54 -33 92 -63 36 -142 42 -219 15 -72 -26 -96 -26 -166 -1
-65 23 -89 24 -152 4z"/>
</g>
</svg>
