<?xml version="1.0" standalone="no"?>
<!DOCTYPE svg PUBLIC "-//W3C//DTD SVG 20010904//EN"
 "http://www.w3.org/TR/2001/REC-SVG-20010904/DTD/svg10.dtd">
<svg version="1.0" xmlns="http://www.w3.org/2000/svg"
 width="256.000000pt" height="256.000000pt" viewBox="0 0 256.000000 256.000000"
 preserveAspectRatio="xMidYMid meet">

<g transform="translate(0.000000,256.000000) scale(0.100000,-0.100000)"
fill="#161b2d" stroke="none">
<path d="M1910 2399 c-338 -43 -618 -78 -622 -79 -5 0 -8 -216 -8 -480 l0
-480 640 0 640 0 0 560 c0 527 -1 560 -17 559 -10 -1 -295 -37 -633 -80z"/>
<path d="M550 2229 c-294 -37 -538 -68 -542 -69 -5 0 -8 -180 -8 -400 l0 -400
560 0 560 0 0 470 c0 441 -1 470 -17 469 -10 -1 -259 -32 -553 -70z"/>
<path d="M0 801 l0 -399 37 -6 c21 -3 256 -33 523 -66 267 -33 502 -63 523
-66 l37 -6 0 471 0 471 -560 0 -560 0 0 -399z"/>
<path d="M1280 721 l0 -479 38 -6 c20 -3 291 -38 602 -76 311 -38 582 -73 603
-76 l37 -6 0 561 0 561 -640 0 -640 0 0 -479z"/>
</g>
</svg>
